<?xml version="1.0" encoding="UTF-8"?>
<svg version="1.1" xmlns="http://www.w3.org/2000/svg" width="500" height="500">
<path d="M0 0 C1.08298617 3.32831944 0.89898266 5.71220383 0.2578125 9.1328125 C0.07863281 10.10347656 -0.10054687 11.07414063 -0.28515625 12.07421875 C-0.57712891 13.58435547 -0.57712891 13.58435547 -0.875 15.125 C-1.06191406 16.13949219 -1.24882812 17.15398437 -1.44140625 18.19921875 C-2.84948028 25.69896055 -2.84948028 25.69896055 -4 28 C-9.08335725 27.84595887 -11.35754718 24.97931568 -14.64453125 21.49609375 C-15.09183594 21.00238281 -15.53914062 20.50867188 -16 20 C-20.7597867 23.37512148 -25.04801169 26.88624396 -29.09204102 31.09399414 C-31.06431137 33.06424554 -33.11238786 34.89699733 -35.21875 36.72265625 C-35.92966797 37.34019775 -36.64058594 37.95773926 -37.37304688 38.59399414 C-37.90994141 39.05797607 -38.44683594 39.52195801 -39 40 C-38.50371094 41.21429688 -38.00742188 42.42859375 -37.49609375 43.6796875 C-28.55665767 66.01498157 -23.40224203 88.36410726 -20.04052734 112.10522461 C-19.86790878 113.29647697 -19.86790878 113.29647697 -19.69180298 114.51179504 C-19.47826854 115.99466654 -19.27234938 117.47866574 -19.07601929 118.96391296 C-18.35420664 123.97261944 -16.90293506 128.30832608 -15 133 C-7.49688462 133 -3.43715258 128.77033198 2 124 C2.71671875 123.40445313 3.4334375 122.80890625 4.171875 122.1953125 C8.95270418 118.17422749 12.99212506 113.77891374 17 109 C18.48775537 107.2269289 19.97798773 105.45612163 21.47363281 103.68969727 C22.50786538 102.46778359 23.53742482 101.24189408 24.56152344 100.01147461 C27.7656935 96.22390778 31.103556 93.07431168 35 90 C29.13585271 110.15800631 17.60066309 129.14999648 4 145 C3.2059375 145.98742187 2.411875 146.97484375 1.59375 147.9921875 C-22.5952595 177.89141918 -59.14813967 201.77095722 -98 206 C-118.90257124 206.93884274 -138.52485795 206.52844968 -155.5 192.625 C-166.10877724 182.46958931 -170.81975319 169.09204904 -171.25 154.625 C-170.98355599 144.83762318 -169.19347488 135.23978732 -166 126 C-165.34 127.32 -164.68 128.64 -164 130 C-162.89977718 128.79798492 -161.79997563 127.5955824 -160.7019043 126.39160156 C-159.71896196 125.3225464 -158.72795446 124.26086043 -157.72973633 123.20605469 C-155.05395207 120.3575452 -152.60412624 117.51937365 -150.37109375 114.30859375 C-144.01706625 105.63398531 -144.01706625 105.63398531 -138.32080078 104.43701172 C-131.85123447 103.88557389 -125.44170007 104.27346015 -119 105 C-119.01571045 103.97060303 -119.01571045 103.97060303 -119.03173828 102.92041016 C-119.07321874 99.82197711 -119.09930069 96.72360239 -119.125 93.625 C-119.14175781 92.54476562 -119.15851563 91.46453125 -119.17578125 90.3515625 C-119.18544922 88.8046875 -119.18544922 88.8046875 -119.1953125 87.2265625 C-119.21102295 85.79691162 -119.21102295 85.79691162 -119.22705078 84.33837891 C-119 82 -119 82 -117 80 C-114.01904297 79.77294922 -114.01904297 79.77294922 -110.2421875 79.8046875 C-109.24761032 79.80893234 -109.24761032 79.80893234 -108.23294067 79.81326294 C-106.11344417 79.82446565 -103.99436896 79.84956949 -101.875 79.875 C-100.43880818 79.88502972 -99.00260975 79.89415559 -97.56640625 79.90234375 C-94.04413372 79.924405 -90.52210797 79.95893506 -87 80 C-87.01047363 79.04633545 -87.02094727 78.0926709 -87.03173828 77.11010742 C-87.06794501 73.57108312 -87.09090284 70.0320752 -87.10986328 66.49291992 C-87.11991935 64.96131639 -87.133566 63.42973205 -87.15087891 61.89819336 C-87.17514498 59.69640364 -87.18648688 57.49486781 -87.1953125 55.29296875 C-87.20563507 54.60849167 -87.21595764 53.92401459 -87.22659302 53.21879578 C-87.22745382 49.56938339 -87.08567666 48.12851498 -85 45 C-82.13012695 44.67871094 -82.13012695 44.67871094 -78.48828125 44.734375 C-76.51504883 44.72857422 -76.51504883 44.72857422 -74.50195312 44.72265625 C-72.41253281 44.73097186 -70.32464596 44.74976299 -68.2355957 44.79052734 C-60.08408373 45.15302888 -60.08408373 45.15302888 -52.61157227 42.50683594 C-50.87718052 40.76069575 -49.46448968 38.9723838 -48 37 C-46.79585361 35.88892247 -45.56843087 34.80218794 -44.3125 33.75 C-40.22232896 30.22702065 -36.25425884 26.58122702 -32.30004883 22.90722656 C-29.29823828 20.13355961 -26.22154925 17.51481084 -23 15 C-24.01790655 12.72928539 -24.77442829 11.19215368 -26.6875 9.5625 C-27.120625 9.046875 -27.55375 8.53125 -28 8 C-27.58203125 5.40234375 -27.58203125 5.40234375 -27 3 C-24.00114586 2.49212954 -21.00121874 1.99353375 -18 1.5 C-16.74123047 1.28537109 -16.74123047 1.28537109 -15.45703125 1.06640625 C-10.22817799 0.21519758 -5.29724973 -0.14714583 0 0 Z M-44.8125 44.3125 C-46.19843296 45.55281899 -47.5943272 46.78209796 -49 48 C-49.57355225 48.52207031 -50.14710449 49.04414063 -50.73803711 49.58203125 C-53.70085197 51.43934681 -55.81443079 51.42958563 -59.296875 51.51171875 C-60.92641113 51.56138794 -60.92641113 51.56138794 -62.58886719 51.61206055 C-64.64862793 51.64940308 -64.64862793 51.64940308 -66.75 51.6875 C-71.1225 51.790625 -75.495 51.89375 -80 52 C-80.33 63.22 -80.66 74.44 -81 86 C-96.345 86.495 -96.345 86.495 -112 87 C-112 94.92 -112 102.84 -112 111 C-114.60648438 110.88205078 -114.60648438 110.88205078 -117.265625 110.76171875 C-130.43191516 109.9384858 -130.43191516 109.9384858 -142.15234375 114.71484375 C-145.20644662 117.84006893 -147.57941875 121.37340477 -150 125 C-151.31354751 126.41385477 -152.66120624 127.7980606 -154.0625 129.125 C-154.56910156 129.62257813 -155.07570312 130.12015625 -155.59765625 130.6328125 C-156.06042969 131.08398438 -156.52320313 131.53515625 -157 132 C-157.47308594 132.55429687 -157.94617188 133.10859375 -158.43359375 133.6796875 C-160 135 -160 135 -164 135 C-164.33 134.34 -164.66 133.68 -165 133 C-167.35289224 146.20328021 -164.13145741 160.15082584 -156.6875 171.25 C-148.46769281 182.20974291 -138.55093503 188.88981299 -124.875 191.625 C-106.67332084 193.38645282 -90.52722366 188.46693273 -75.9375 177.4375 C-74.60688503 176.31275377 -73.2926142 175.16822036 -72 174 C-71.42507812 173.505 -70.85015625 173.01 -70.2578125 172.5 C-55.54105636 158.93616945 -46.68274227 139.13744274 -42 120 C-41.80390137 119.2152832 -41.60780273 118.43056641 -41.40576172 117.62207031 C-38.04888624 103.4534757 -37.62839494 89.36119076 -37.625 74.875 C-37.62214493 73.55533737 -37.62214493 73.55533737 -37.61923218 72.20901489 C-37.62182481 61.62205343 -38.12507352 51.44478609 -40 41 C-41.94154109 41 -43.44997509 43.09153612 -44.8125 44.3125 Z " fill="#219A5D" transform="translate(179,147)"/>
<path d="M0 0 C8.25 0 16.5 0 25 0 C25.09253666 7.37979874 25.17196318 14.75753144 25.21972656 22.13745117 C25.23966694 24.64045079 25.26682916 27.1434049 25.30175781 29.64624023 C25.6819465 57.6180638 20.52235373 83.02226646 3.2265625 105.77734375 C2 107 2 107 0 107 C0 71.69 0 36.38 0 0 Z " fill="#06317C" transform="translate(106,203)"/>
<path d="M0 0 C8.25 0 16.5 0 25 0 C25.24896735 10.16204647 25.45056544 20.3220541 25.56993389 30.48646545 C25.62723921 35.20681438 25.70489094 39.92496147 25.82983398 44.64404297 C25.94976134 49.20244793 26.01520481 53.75874232 26.04364967 58.31860352 C26.06390572 60.05396763 26.10346766 61.78922174 26.16303062 63.52368164 C26.60964821 77.07362333 26.60964821 77.07362333 22.6690979 81.78955078 C19.85741939 83.87846833 17.14666669 85.47201505 14 87 C12.18740753 87.99983238 10.37489183 88.99980397 8.5625 90 C5.20617812 91.68092562 3.91485752 92 0 92 C0 61.64 0 31.28 0 0 Z " fill="#06317C" transform="translate(76,238)"/>
<path d="M0 0 C1.08298617 3.32831944 0.89898266 5.71220383 0.2578125 9.1328125 C0.07863281 10.10347656 -0.10054687 11.07414063 -0.28515625 12.07421875 C-0.57712891 13.58435547 -0.57712891 13.58435547 -0.875 15.125 C-1.06191406 16.13949219 -1.24882812 17.15398437 -1.44140625 18.19921875 C-2.84948028 25.69896055 -2.84948028 25.69896055 -4 28 C-9.08335725 27.84595887 -11.35754718 24.97931568 -14.64453125 21.49609375 C-15.09183594 21.00238281 -15.53914062 20.50867188 -16 20 C-20.81868271 23.4168841 -25.12747805 26.99033691 -29.23828125 31.23046875 C-31.60634499 33.60903388 -34.13276911 35.77264807 -36.67578125 37.9609375 C-40.16764321 41.02438614 -43.56650283 44.18851455 -46.96362305 47.35644531 C-51.33041643 51.39784744 -53.17606636 52.12534548 -59.1015625 52.09765625 C-60.91914063 52.09282227 -60.91914063 52.09282227 -62.7734375 52.08789062 C-64.04445313 52.07951172 -65.31546875 52.07113281 -66.625 52.0625 C-67.90375 52.05798828 -69.1825 52.05347656 -70.5 52.04882812 C-73.66671292 52.03701203 -76.83333356 52.02053815 -80 52 C-79.99476318 53.02472412 -79.98952637 54.04944824 -79.98413086 55.10522461 C-79.96608031 58.89395276 -79.9545678 62.68267709 -79.94506836 66.47143555 C-79.94002826 68.11369464 -79.93319622 69.75594923 -79.92456055 71.39819336 C-79.91248074 73.75375479 -79.90676861 76.10925709 -79.90234375 78.46484375 C-79.89718246 79.20339096 -79.89202118 79.94193817 -79.88670349 80.7028656 C-79.8865075 82.46898088 -79.93805281 84.23497146 -80 86 C-81 87 -81 87 -83.95922852 87.11352539 C-85.25272217 87.10828857 -86.54621582 87.10305176 -87.87890625 87.09765625 C-88.90889992 87.09553383 -88.90889992 87.09553383 -89.95970154 87.09336853 C-92.16067801 87.08775479 -94.36155409 87.07520007 -96.5625 87.0625 C-98.05143083 87.05748676 -99.54036324 87.05292355 -101.02929688 87.04882812 C-104.68626805 87.03863021 -108.34302117 87.01905779 -112 87 C-112 94.92 -112 102.84 -112 111 C-114.55543155 112.27771577 -116.20611566 112.01701812 -119.05859375 111.89453125 C-131.08749219 111.12342693 -131.08749219 111.12342693 -141.7890625 115.48828125 C-144.59669213 118.37911712 -146.77152617 121.65305262 -149 125 C-150.27364351 126.37049853 -151.58120668 127.71123996 -152.9375 129 C-154.78222468 130.79201826 -156.48915019 132.55902879 -158.1875 134.5 C-160 136 -160 136 -162.1875 135.9375 C-164 135 -164 135 -165 132 C-161.53232916 125.96188783 -156.1663641 121.03537872 -151.21875 116.21484375 C-148.43764252 113.43863259 -145.86876167 110.51355528 -143.3125 107.53125 C-142.56874537 106.66353626 -141.8081145 105.8081145 -141 105 C-139.36527118 104.91299658 -137.72685945 104.89298937 -136.08984375 104.90234375 C-134.60581055 104.90717773 -134.60581055 104.90717773 -133.09179688 104.91210938 C-132.05087891 104.92048828 -131.00996094 104.92886719 -129.9375 104.9375 C-128.37032227 104.94426758 -128.37032227 104.94426758 -126.77148438 104.95117188 C-124.1809334 104.96300087 -121.59049441 104.97948311 -119 105 C-119.01571045 103.97060303 -119.01571045 103.97060303 -119.03173828 102.92041016 C-119.07321874 99.82197711 -119.09930069 96.72360239 -119.125 93.625 C-119.14175781 92.54476562 -119.15851563 91.46453125 -119.17578125 90.3515625 C-119.18544922 88.8046875 -119.18544922 88.8046875 -119.1953125 87.2265625 C-119.21102295 85.79691162 -119.21102295 85.79691162 -119.22705078 84.33837891 C-119 82 -119 82 -117 80 C-114.01904297 79.77294922 -114.01904297 79.77294922 -110.2421875 79.8046875 C-109.24761032 79.80893234 -109.24761032 79.80893234 -108.23294067 79.81326294 C-106.11344417 79.82446565 -103.99436896 79.84956949 -101.875 79.875 C-100.43880818 79.88502972 -99.00260975 79.89415559 -97.56640625 79.90234375 C-94.04413372 79.924405 -90.52210797 79.95893506 -87 80 C-87.01047363 79.04633545 -87.02094727 78.0926709 -87.03173828 77.11010742 C-87.06794501 73.57108312 -87.09090284 70.0320752 -87.10986328 66.49291992 C-87.11991935 64.96131639 -87.133566 63.42973205 -87.15087891 61.89819336 C-87.17514498 59.69640364 -87.18648688 57.49486781 -87.1953125 55.29296875 C-87.20563507 54.60849167 -87.21595764 53.92401459 -87.22659302 53.21879578 C-87.22745382 49.56938339 -87.08567666 48.12851498 -85 45 C-82.13012695 44.67871094 -82.13012695 44.67871094 -78.48828125 44.734375 C-76.51504883 44.72857422 -76.51504883 44.72857422 -74.50195312 44.72265625 C-72.41253281 44.73097186 -70.32464596 44.74976299 -68.2355957 44.79052734 C-60.08408373 45.15302888 -60.08408373 45.15302888 -52.61157227 42.50683594 C-50.87718052 40.76069575 -49.46448968 38.9723838 -48 37 C-46.79585361 35.88892247 -45.56843087 34.80218794 -44.3125 33.75 C-40.22232896 30.22702065 -36.25425884 26.58122702 -32.30004883 22.90722656 C-29.29823828 20.13355961 -26.22154925 17.51481084 -23 15 C-24.01790655 12.72928539 -24.77442829 11.19215368 -26.6875 9.5625 C-27.120625 9.046875 -27.55375 8.53125 -28 8 C-27.58203125 5.40234375 -27.58203125 5.40234375 -27 3 C-24.00114586 2.49212954 -21.00121874 1.99353375 -18 1.5 C-16.74123047 1.28537109 -16.74123047 1.28537109 -15.45703125 1.06640625 C-10.22817799 0.21519758 -5.29724973 -0.14714583 0 0 Z " fill="#030303" transform="translate(179,147)"/>
<path d="M0 0 C8.25 0 16.5 0 25 0 C25 22.77 25 45.54 25 69 C9 69 9 69 0 66 C0 44.22 0 22.44 0 0 Z " fill="#07317B" transform="translate(46,263)"/>
<path d="M0 0 C4.94430118 2.89348221 7.96112305 6.13441529 9.625 11.75 C9.625 17.88821974 8.12745445 21.80425216 3.875 26.25 C-1.64301876 29.85793534 -6.83050496 30.94907851 -13.375 30.375 C-18.36367342 29.06821557 -22.83878223 27.21432216 -26.375 23.375 C-28.93917598 18.74083468 -29.89239605 14.78170255 -28.4375 9.625 C-26.30605024 4.3832802 -23.15684636 1.67626036 -18.01171875 -0.73046875 C-12.15646685 -2.71691717 -5.64843071 -2.57234036 0 0 Z " fill="#209B5C" transform="translate(191.375,228.625)"/>
<path d="M0 0 C2.64 0 5.28 0 8 0 C12.62 10.89 17.24 21.78 22 33 C22.33 22.11 22.66 11.22 23 0 C24.98 0 26.96 0 29 0 C29 15.84 29 31.68 29 48 C26.36 48 23.72 48 21 48 C16.38 37.11 11.76 26.22 7 15 C6.67 25.89 6.34 36.78 6 48 C4.02 48 2.04 48 0 48 C0 32.16 0 16.32 0 0 Z " fill="#020202" transform="translate(348,226)"/>
<path d="M0 0 C1.98 0 3.96 0 6 0 C6 16.83 6 33.66 6 51 C4.35 51 2.7 51 1 51 C1 50.34 1 49.68 1 49 C0.319375 49.495 -0.36125 49.99 -1.0625 50.5 C-4.72431906 52.36986505 -6.93214595 52.50848176 -11 52 C-15.04955118 49.57026929 -16.65304214 47.46216878 -18 43 C-18.33399743 39.89216312 -18.37013816 36.81123308 -18.375 33.6875 C-18.39949219 32.87087891 -18.42398437 32.05425781 -18.44921875 31.21289062 C-18.47646618 25.51363673 -17.58470175 20.59303013 -14 16 C-11.02843088 14.08027683 -10.05693437 13.99607349 -6.375 14.25 C-3 15 -3 15 -1 17 C-0.67 11.39 -0.34 5.78 0 0 Z M-10.63671875 22.02734375 C-12.33711325 25.73508076 -12.44137501 29.00274952 -12.375 33 C-12.38660156 33.69867188 -12.39820313 34.39734375 -12.41015625 35.1171875 C-12.38488783 39.58127507 -11.74040368 42.45556589 -9 46 C-7.12907319 47.23901711 -7.12907319 47.23901711 -5 47 C-2.22666082 44.78132865 -1.13126558 43.39379675 0 40 C0.12040604 37.87749355 0.17533819 35.75088413 0.1875 33.625 C0.20876953 31.94277344 0.20876953 31.94277344 0.23046875 30.2265625 C-0.07895921 25.89457107 -0.91414878 23.08585122 -4 20 C-7.33447823 19.40150391 -8.45892178 19.32978617 -10.63671875 22.02734375 Z " fill="#020203" transform="translate(307,223)"/>
<path d="M0 0 C3.0951271 2.44544241 4.75103354 5.25310062 6 9 C6.17560807 11.91048781 6.27718869 14.77549369 6.3125 17.6875 C6.34150391 18.46544922 6.37050781 19.24339844 6.40039062 20.04492188 C6.46134342 25.66664526 5.5160842 30.46583188 2 35 C-1.79043906 37.39841192 -5.62040424 37.68921925 -10 37 C-14.61300854 34.43721748 -16.45132029 30.90263231 -18 26 C-18.30580998 23.24771014 -18.47850466 20.80062729 -18.4375 18.0625 C-18.43065186 17.3610083 -18.42380371 16.6595166 -18.41674805 15.93676758 C-18.20440839 9.09338639 -16.88233477 4.71762992 -11.8125 -0.0625 C-7.6763517 -1.4412161 -4.14758712 -1.3750153 0 0 Z M-9 5 C-11.60116565 9.51419224 -12.4091999 12.80161529 -12.375 18 C-12.38273437 19.175625 -12.39046875 20.35125 -12.3984375 21.5625 C-11.96026644 25.34279932 -11.0010906 27.77814839 -9 31 C-6.56900326 32.23684105 -6.56900326 32.23684105 -4 32 C-1.46155991 30.18682851 -1.00510975 29.01532925 0 26 C0.14821529 23.36062776 0.23097341 20.76493877 0.25 18.125 C0.270625 17.41730469 0.29125 16.70960938 0.3125 15.98046875 C0.34593298 11.49209075 -0.08214387 8.48653342 -3 5 C-6.12635209 4.58253392 -6.12635209 4.58253392 -9 5 Z " fill="#020202" transform="translate(402,238)"/>
<path d="M0 0 C6.27 0 12.54 0 19 0 C19 11.55 19 23.1 19 35 C8.58568925 28.75141355 4.08103279 20.39619316 0.37109375 9.08203125 C-0.16056051 6.09917103 0 3.02986986 0 0 Z " fill="#093279" transform="translate(22,291)"/>
<path d="M0 0 C3.38939556 2.13679285 4.72582557 3.1774767 6 7 C6.08378628 9.2838517 6.10729915 11.570101 6.09765625 13.85546875 C6.0962413 14.51710526 6.09482635 15.17874176 6.09336853 15.86042786 C6.08777996 17.96949828 6.07522965 20.07846177 6.0625 22.1875 C6.05748352 23.61913909 6.05292087 25.05077985 6.04882812 26.48242188 C6.0378143 29.98831588 6.02055755 33.4941475 6 37 C3.33333333 37 0.66666667 37 -2 37 C-2.495 37.495 -2.495 37.495 -3 38 C-10.04430065 38.69288203 -10.04430065 38.69288203 -13.5 36.1875 C-15.72579148 31.45769311 -15.75684499 27.13573388 -15 22 C-13.07813675 18.37802695 -11.780272 17.34863217 -8.0625 15.6875 C-5.24218253 15.05436751 -2.87492362 14.83088685 0 15 C-0.33 12.03 -0.66 9.06 -1 6 C-4.63 6.33 -8.26 6.66 -12 7 C-12.33 5.68 -12.66 4.36 -13 3 C-8.47405537 0.35066656 -5.24696826 -0.66779596 0 0 Z M-7.3125 21 C-9.26281734 23.31148722 -9.29486433 24.11884964 -9.375 27.0625 C-9.42144512 31.00314251 -9.42144512 31.00314251 -7 33 C-4.46048456 32.90888062 -4.46048456 32.90888062 -2 32 C0.13586678 28.79619983 0.23132175 27.98060033 0.125 24.3125 C0.09792969 23.10013672 0.09792969 23.10013672 0.0703125 21.86328125 C0.04710937 21.24839844 0.02390625 20.63351562 0 20 C-2.83089822 19.76409181 -4.6880612 19.86510755 -7.3125 21 Z " fill="#020203" transform="translate(452,237)"/>
<path d="M0 0 C3.98761466 3.67280298 5.85077094 7.96567575 6.1171875 13.3828125 C6.12410306 15.58887669 6.06682009 17.79493716 6 20 C0.39 20 -5.22 20 -11 20 C-10.54625 21.44375 -10.0925 22.8875 -9.625 24.375 C-9.36976563 25.18710937 -9.11453125 25.99921875 -8.8515625 26.8359375 C-8.10145717 29.16459185 -8.10145717 29.16459185 -6 31 C-3.55036823 31.02253443 -3.55036823 31.02253443 -0.875 30.625 C0.03507812 30.51414062 0.94515625 30.40328125 1.8828125 30.2890625 C2.58148438 30.19367188 3.28015625 30.09828125 4 30 C4.1875 32.375 4.1875 32.375 4 35 C-0.25939459 37.83959639 -4.00222477 37.62372235 -9 37 C-13.18591587 34.86251104 -15.03197657 32.00671149 -16.49609375 27.5390625 C-18.1636927 19.13643215 -17.90676986 10.66884455 -14 3 C-10.10256513 -1.52016551 -5.54734865 -1.62498092 0 0 Z M-6 4 C-9.12270126 6.51830747 -9.94523098 7.7261549 -10.75 11.75 C-10.8325 12.8225 -10.915 13.895 -11 15 C-7.37 15 -3.74 15 0 15 C-0.18837935 10.9344067 -0.18837935 10.9344067 -1 7 C-3.40743101 4.93545998 -3.40743101 4.93545998 -6 4 Z " fill="#020202" transform="translate(336,238)"/>
<path d="M0 0 C3.38939556 2.13679285 4.72582557 3.1774767 6 7 C6.08378628 9.2838517 6.10729915 11.570101 6.09765625 13.85546875 C6.0962413 14.51710526 6.09482635 15.17874176 6.09336853 15.86042786 C6.08777996 17.96949828 6.07522965 20.07846177 6.0625 22.1875 C6.05748352 23.61913909 6.05292087 25.05077985 6.04882812 26.48242188 C6.0378143 29.98831588 6.02055755 33.4941475 6 37 C3.33333333 37 0.66666667 37 -2 37 C-2.495 37.495 -2.495 37.495 -3 38 C-10.04430065 38.69288203 -10.04430065 38.69288203 -13.5 36.1875 C-15.72579148 31.45769311 -15.75684499 27.13573388 -15 22 C-13.07813675 18.37802695 -11.780272 17.34863217 -8.0625 15.6875 C-5.24218253 15.05436751 -2.87492362 14.83088685 0 15 C-0.33 12.03 -0.66 9.06 -1 6 C-4.63 6.33 -8.26 6.66 -12 7 C-12.33 5.68 -12.66 4.36 -13 3 C-8.47405537 0.35066656 -5.24696826 -0.66779596 0 0 Z M-7.3125 21 C-9.26281734 23.31148722 -9.29486433 24.11884964 -9.375 27.0625 C-9.42144512 31.00314251 -9.42144512 31.00314251 -7 33 C-4.46048456 32.90888062 -4.46048456 32.90888062 -2 32 C0.13586678 28.79619983 0.23132175 27.98060033 0.125 24.3125 C0.09792969 23.10013672 0.09792969 23.10013672 0.0703125 21.86328125 C0.04710937 21.24839844 0.02390625 20.63351562 0 20 C-2.83089822 19.76409181 -4.6880612 19.86510755 -7.3125 21 Z " fill="#030302" transform="translate(276,237)"/>
<path d="M0 0 C8.25 0 16.5 0 25 0 C25 1.98 25 3.96 25 6 C22.03 6 19.06 6 16 6 C16 19.86 16 33.72 16 48 C13.69 48 11.38 48 9 48 C9 34.14 9 20.28 9 6 C6.03 6 3.06 6 0 6 C0 4.02 0 2.04 0 0 Z " fill="#010202" transform="translate(214,226)"/>
<path d="M0 0 C1.98 0 3.96 0 6 0 C6.14622803 0.65597168 6.29245605 1.31194336 6.44311523 1.98779297 C7.10521028 4.95080618 7.77130419 7.91290623 8.4375 10.875 C8.66759766 11.90753906 8.89769531 12.94007813 9.13476562 14.00390625 C9.35712891 14.99003906 9.57949219 15.97617188 9.80859375 16.9921875 C10.01282959 17.90339355 10.21706543 18.81459961 10.42749023 19.75341797 C10.9192284 22.01553202 10.9192284 22.01553202 12 24 C12.14622803 23.34402832 12.29245605 22.68805664 12.44311523 22.01220703 C13.10521028 19.04919382 13.77130419 16.08709377 14.4375 13.125 C14.66759766 12.09246094 14.89769531 11.05992187 15.13476562 9.99609375 C15.35712891 9.00996094 15.57949219 8.02382812 15.80859375 7.0078125 C16.11494751 5.64100342 16.11494751 5.64100342 16.42749023 4.24658203 C17 2 17 2 18 0 C19.98 0 21.96 0 24 0 C22.70125258 7.80498174 20.97105103 15.41812932 18.9375 23.0625 C18.66873047 24.09310547 18.39996094 25.12371094 18.12304688 26.18554688 C16.13842536 33.72314927 16.13842536 33.72314927 15 36 C12.69 36 10.38 36 8 36 C6.85284122 31.67870475 5.71377306 27.35538098 4.58203125 23.0300293 C4.19620813 21.56004967 3.80821159 20.09063866 3.41796875 18.62182617 C2.85619705 16.50586722 2.30237097 14.38796102 1.75 12.26953125 C1.41484375 10.99698486 1.0796875 9.72443848 0.734375 8.41333008 C0.09915822 5.46088135 -0.16034603 2.99897176 0 0 Z " fill="#020203" transform="translate(411,238)"/>
<path d="M0 0 C0.7425 0.0825 1.485 0.165 2.25 0.25 C3.29449911 3.38349732 3.18423645 4.23968256 2.25 7.25 C1.486875 7.311875 0.72375 7.37375 -0.0625 7.4375 C-2.90650451 8.00691153 -2.90650451 8.00691153 -4.38598633 10.44213867 C-5.88390692 13.52565125 -6.17058418 15.57984836 -6.26171875 18.98828125 C-6.29716797 20.05498047 -6.33261719 21.12167969 -6.36914062 22.22070312 C-6.39169922 23.32349609 -6.41425781 24.42628906 -6.4375 25.5625 C-6.47166016 26.68462891 -6.50582031 27.80675781 -6.54101562 28.96289062 C-6.62329601 31.72516062 -6.69251281 34.48712113 -6.75 37.25 C-8.73 37.25 -10.71 37.25 -12.75 37.25 C-12.75 25.37 -12.75 13.49 -12.75 1.25 C-11.1 1.25 -9.45 1.25 -7.75 1.25 C-7.42 2.24 -7.09 3.23 -6.75 4.25 C-6.193125 3.59 -5.63625 2.93 -5.0625 2.25 C-2.75 0.25 -2.75 0.25 0 0 Z " fill="#030303" transform="translate(255.75,236.75)"/>
<path d="M0 0 C8.25 0 16.5 0 25 0 C25.09253666 7.37979874 25.17196318 14.75753144 25.21972656 22.13745117 C25.23966694 24.64045079 25.26682916 27.1434049 25.30175781 29.64624023 C25.76665034 63.85002449 25.76665034 63.85002449 19 74 C18.67 71.36 18.34 68.72 18 66 C19.485 65.505 19.485 65.505 21 65 C20.9690625 63.2984375 20.9690625 63.2984375 20.9375 61.5625 C21 58 21 58 22 57 C22.09353163 55.31198015 22.11744791 53.62004793 22.11352539 51.92944336 C22.11341209 50.30787575 22.11341209 50.30787575 22.11329651 48.65354919 C22.10813522 47.4775264 22.10297394 46.3015036 22.09765625 45.08984375 C22.0962413 43.89267227 22.09482635 42.69550079 22.09336853 41.46205139 C22.08774979 37.62050934 22.07519411 33.77902457 22.0625 29.9375 C22.05748741 27.34049563 22.05292409 24.74349035 22.04882812 22.14648438 C22.03777427 15.76430068 22.02049708 9.38216007 22 3 C15.4 3 8.8 3 2 3 C1.67 14.55 1.34 26.1 1 38 C0.67 38 0.34 38 0 38 C0 25.46 0 12.92 0 0 Z " fill="#16366C" transform="translate(106,203)"/>
<path d="M0 0 C8.25 0 16.5 0 25 0 C25.20359402 10.17935285 25.36859005 20.357347 25.46630955 30.53827763 C25.51321835 35.26611721 25.57680341 39.99248815 25.67895508 44.71948242 C25.77698093 49.28429446 25.8306051 53.84769723 25.85389519 58.41348076 C25.87048419 60.1523501 25.90288222 61.89114497 25.95157051 63.6294117 C26.31902986 77.29601169 26.31902986 77.29601169 22.93649292 81.66574097 C20.6905925 83.42993881 18.58536036 84.79971156 16 86 C15.34 85.67 14.68 85.34 14 85 C15.3125 83 15.3125 83 17 81 C17.99 81 18.98 81 20 81 C20 80.34 20 79.68 20 79 C21.98 78.505 21.98 78.505 24 78 C24 52.59 24 27.18 24 1 C16.41 1.33 8.82 1.66 1 2 C1 31.37 1 60.74 1 91 C1.99 91.33 2.98 91.66 4 92 C2.68 92 1.36 92 0 92 C0 61.64 0 31.28 0 0 Z " fill="#19356A" transform="translate(76,238)"/>
<path d="M0 0 C3.77371247 1.88685624 4.53881358 6.77075928 5.95703125 10.54296875 C7.29478172 14.97708548 7.38882375 18.41187975 7 23 C6.34 23 5.68 23 5 23 C4.98018066 23.80743652 4.96036133 24.61487305 4.93994141 25.44677734 C4.84494101 29.08985875 4.73516088 32.73234686 4.625 36.375 C4.5940625 37.64601562 4.563125 38.91703125 4.53125 40.2265625 C4.47324219 42.04414063 4.47324219 42.04414063 4.4140625 43.8984375 C4.36693115 45.57945557 4.36693115 45.57945557 4.31884766 47.29443359 C4 50 4 50 2 52 C1.97494385 50.92218262 1.9498877 49.84436523 1.92407227 48.73388672 C1.82863597 44.66707002 1.72877009 40.6003713 1.62768555 36.53369141 C1.58484376 34.78632399 1.54314283 33.03892816 1.50268555 31.29150391 C1.25964687 20.8318392 0.87789177 10.42913884 0 0 Z " fill="#2D9261" transform="translate(139,188)"/>
<path d="M0 0 C0.33 0 0.66 0 1 0 C0.91291962 2.10494301 0.80474307 4.20902142 0.6875 6.3125 C0.62949219 7.48425781 0.57148438 8.65601563 0.51171875 9.86328125 C-0.04297875 13.26344992 -0.50217914 13.85187406 -3 16 C-3.98628417 18.03077684 -3.98628417 18.03077684 -4.6875 20.1875 C-4.93886719 20.90292969 -5.19023437 21.61835938 -5.44921875 22.35546875 C-5.63097656 22.89816406 -5.81273437 23.44085938 -6 24 C-6.66 24 -7.32 24 -8 24 C-8 25.32 -8 26.64 -8 28 C-8.66 28 -9.32 28 -10 28 C-10 28.99 -10 29.98 -10 31 C-10.66 31 -11.32 31 -12 31 C-12 31.99 -12 32.98 -12 34 C-12.66 34 -13.32 34 -14 34 C-14.165 34.825 -14.33 35.65 -14.5 36.5 C-16.32513205 40.75864145 -18.81884154 43.0050327 -22.22265625 46.0703125 C-24.09316633 48.10115202 -24.61080706 49.30558737 -25 52 C-26.65 52 -28.3 52 -30 52 C-29.175 51.05125 -28.35 50.1025 -27.5 49.125 C-26.33188463 47.75123052 -25.16535557 46.37611137 -24 45 C-23.37351562 44.27425781 -22.74703125 43.54851562 -22.1015625 42.80078125 C-11.45281781 30.06858651 -5.11272661 15.67265728 0 0 Z " fill="#2E8E61" transform="translate(135,271)"/>
<path d="M0 0 C1 2 1 2 0.33496094 3.99951172 C-0.02823242 4.80146973 -0.39142578 5.60342773 -0.765625 6.4296875 C-1.16136719 7.30753906 -1.55710938 8.18539062 -1.96484375 9.08984375 C-2.38894531 10.00894531 -2.81304687 10.92804688 -3.25 11.875 C-3.65863281 12.78636719 -4.06726563 13.69773438 -4.48828125 14.63671875 C-6.36766947 18.76412118 -8.16551622 22.43393779 -11 26 C-11.33 24.68 -11.66 23.36 -12 22 C-11.34 22 -10.68 22 -10 22 C-10 19.69 -10 17.38 -10 15 C-10.99 16.485 -10.99 16.485 -12 18 C-12.99 17.67 -13.98 17.34 -15 17 C-10.60502098 10.67467725 -5.54949524 5.32751543 0 0 Z " fill="#28965E" transform="translate(213,237)"/>
<path d="M0 0 C7.59 0 15.18 0 23 0 C23 0.33 23 0.66 23 1 C12.605 1.99 12.605 1.99 2 3 C1.9774307 11.0492552 1.95907429 19.0984859 1.94818783 27.14776421 C1.94296356 30.8851425 1.93587416 34.62249807 1.92456055 38.35986328 C1.9137155 41.96489816 1.90771972 45.56991116 1.90512276 49.17496109 C1.90327143 50.55210846 1.8996564 51.92925459 1.89426994 53.30639267 C1.88703819 55.23143094 1.88659176 57.15649112 1.88647461 59.08154297 C1.884254 60.17852509 1.88203339 61.2755072 1.87974548 62.4057312 C1.82368355 64.98513224 1.82368355 64.98513224 3 67 C2.01 66.67 1.02 66.34 0 66 C0 44.22 0 22.44 0 0 Z " fill="#19376E" transform="translate(46,263)"/>
<path d="M0 0 C0.33 0 0.66 0 1 0 C1.20888469 9.52717318 1.36861867 19.05355395 1.46630955 28.58252048 C1.51320693 33.00774284 1.57676809 37.43139457 1.67895508 41.85571289 C1.77702624 46.12876139 1.83061368 50.40030346 1.85389519 54.67439079 C1.87047648 56.30163222 1.90285995 57.92879459 1.95157051 59.55539131 C2.31902986 72.3389279 2.31902986 72.3389279 -1.06350708 76.59860229 C-3.30637947 78.35932264 -5.4378393 79.75964219 -8 81 C-8.66 80.67 -9.32 80.34 -10 80 C-8.6875 78 -8.6875 78 -7 76 C-6.01 76 -5.02 76 -4 76 C-4 75.34 -4 74.68 -4 74 C-2.02 73.505 -2.02 73.505 0 73 C0 48.91 0 24.82 0 0 Z " fill="#143C81" transform="translate(100,243)"/>
<path d="M0 0 C0 3 0 3 -1.5 5.3125 C-3.26540004 8.4755084 -3.15841348 10.43569666 -3 14 C-3.33 14.66 -3.66 15.32 -4 16 C-3.72057545 17.67654729 -3.39171753 19.34608154 -3 21 C-1.68 21 -0.36 21 1 21 C1.33 22.32 1.66 23.64 2 25 C3.32 25 4.64 25 6 25 C6 25.66 6 26.32 6 27 C14.91 26.01 14.91 26.01 24 25 C23 27 23 27 19.875 28.125 C11.44479464 30.02859476 5.49585152 28.5976031 -1.8125 24.375 C-4.96287984 20.9545876 -6.41704496 17.61936525 -7 13 C-6.23478465 7.61769876 -4.32488637 3.4300823 0 0 Z " fill="#329062" transform="translate(169,230)"/>
<path d="M0 0 C0.99 0.33 1.98 0.66 3 1 C3 2.98 3 4.96 3 7 C4.66274199 8.25124046 4.66274199 8.25124046 7 9 C10.20898563 8.2086563 10.20898563 8.2086563 13 7 C13 10.3 13 13.6 13 17 C9.25198578 14.94907613 6.57611619 12.76075744 3.75 9.5625 C3.06421875 8.80066406 2.3784375 8.03882813 1.671875 7.25390625 C0.05081541 5.06850582 -0.69327114 3.68387756 -1 1 C-0.67 0.67 -0.34 0.34 0 0 Z " fill="#0E336E" transform="translate(28,309)"/>
<path d="M0 0 C0.33 0 0.66 0 1 0 C1 8.25 1 16.5 1 25 C0.67 25 0.34 25 0 25 C-0.33 22.36 -0.66 19.72 -1 17 C-1.66 18.32 -2.32 19.64 -3 21 C-3.33 20.67 -3.66 20.34 -4 20 C-3.94360202 13.0207496 -2.22126299 6.56599751 0 0 Z " fill="#29895B" transform="translate(13,273)"/>
<path d="M0 0 C0.99 0.99 1.98 1.98 3 3 C2.67 3.33 2.34 3.66 2 4 C1.91138008 6.8116338 1.88477645 9.59858255 1.90234375 12.41015625 C1.9037587 13.25219101 1.90517365 14.09422577 1.90663147 14.96177673 C1.91224737 17.66205335 1.92480252 20.36224828 1.9375 23.0625 C1.94251295 24.88867068 1.94707621 26.71484266 1.95117188 28.54101562 C1.96222196 33.02737542 1.97949721 37.51367384 2 42 C1.34 42 0.68 42 0 42 C0 28.14 0 14.28 0 0 Z " fill="#183A77" transform="translate(106,268)"/>
<path d="M0 0 C0.33 0 0.66 0 1 0 C1.26303192 3.85285562 1.42172203 7.70339593 1.5625 11.5625 C1.63791016 12.64853516 1.71332031 13.73457031 1.79101562 14.85351562 C2.00960579 22.8442004 2.00960579 22.8442004 -1.04345703 26.33935547 C-3.29125772 28.08764489 -5.51869464 29.60719913 -8 31 C-8.66 30.67 -9.32 30.34 -10 30 C-8.6875 28 -8.6875 28 -7 26 C-6.01 26 -5.02 26 -4 26 C-4 25.34 -4 24.68 -4 24 C-2.68 23.67 -1.36 23.34 0 23 C0 15.41 0 7.82 0 0 Z " fill="#173869" transform="translate(100,293)"/>
<path d="M0 0 C0.66 0.33 1.32 0.66 2 1 C-2.90759464 4.3831647 -7.43552683 6.69995048 -13.21484375 8.2265625 C-13.80394531 8.48179687 -14.39304687 8.73703125 -15 9 C-15.33 9.99 -15.66 10.98 -16 12 C-20.455 11.01 -20.455 11.01 -25 10 C-25 9.67 -25 9.34 -25 9 C-23.92685547 8.77957031 -23.92685547 8.77957031 -22.83203125 8.5546875 C-15.56646371 6.91922986 -9.267327 4.45836611 -2.6171875 1.109375 C-1.32167969 0.56023437 -1.32167969 0.56023437 0 0 Z " fill="#2E8C62" transform="translate(95,329)"/>
<path d="M0 0 C0.33 0.66 0.66 1.32 1 2 C0.22265625 4.1640625 0.22265625 4.1640625 -0.9375 6.625 C-1.31777344 7.44226563 -1.69804687 8.25953125 -2.08984375 9.1015625 C-2.54037109 10.04128906 -2.54037109 10.04128906 -3 11 C-3.33 10.34 -3.66 9.68 -4 9 C-5.65 9.66 -7.3 10.32 -9 11 C-7.59155282 7.78475695 -5.89655214 5.67816132 -3.375 3.25 C-2.74335938 2.63640625 -2.11171875 2.0228125 -1.4609375 1.390625 C-0.73777344 0.70226562 -0.73777344 0.70226562 0 0 Z " fill="#2A8D5C" transform="translate(213,237)"/>
<path d="M0 0 C2.79081339 1.3954067 3.03903006 3.01419041 4.1875 5.875 C4.55230469 6.75929687 4.91710937 7.64359375 5.29296875 8.5546875 C6 11 6 11 5 14 C4.34 13.01 3.68 12.02 3 11 C2.34 11.99 1.68 12.98 1 14 C0.67 9.38 0.34 4.76 0 0 Z " fill="#34815F" transform="translate(139,188)"/>
<path d="M0 0 C0.66 0.33 1.32 0.66 2 1 C3.50994666 6.69133741 2.77797412 10.92909486 0 16 C-1.609375 17.734375 -1.609375 17.734375 -3 19 C-3.66 18.67 -4.32 18.34 -5 18 C-4.54625 17.4225 -4.0925 16.845 -3.625 16.25 C-0.76985386 12.29672072 0.25456784 9.67357786 0.125 4.75 C0.10695312 3.85796875 0.08890625 2.9659375 0.0703125 2.046875 C0.04710937 1.37140625 0.02390625 0.6959375 0 0 Z " fill="#2F9060" transform="translate(198,236)"/>
<path d="M0 0 C1.40378906 -0.02126953 1.40378906 -0.02126953 2.8359375 -0.04296875 C5.78618154 0.20081892 7.94864112 0.95637492 10.625 2.1875 C6.875 3.3125 6.875 3.3125 4.625 2.1875 C-1.25665736 1.72161718 -1.25665736 1.72161718 -6.375 4.1875 C-8.5625 3.8125 -8.5625 3.8125 -10.375 3.1875 C-7.19723457 0.00973457 -4.29934829 0.02944759 0 0 Z " fill="#338E61" transform="translate(181.375,226.8125)"/>
<path d="M0 0 C0.99 0 1.98 0 3 0 C3 1.65 3 3.3 3 5 C0.11584117 6.44207941 -2.41721528 6.09394887 -5.625 6.0625 C-6.81351563 6.05347656 -8.00203125 6.04445313 -9.2265625 6.03515625 C-10.14179687 6.02355469 -11.05703125 6.01195312 -12 6 C-12 5.67 -12 5.34 -12 5 C-8.37 5 -4.74 5 -1 5 C-0.67 3.35 -0.34 1.7 0 0 Z " fill="#0B3370" transform="translate(67,326)"/>
<path d="M0 0 C0.33 0.66 0.66 1.32 1 2 C-0.09166436 3.6748823 -1.19873637 5.33973123 -2.3125 7 C-2.92738281 7.928125 -3.54226562 8.85625 -4.17578125 9.8125 C-4.77777344 10.534375 -5.37976563 11.25625 -6 12 C-6.99 12 -7.98 12 -9 12 C-8.34 11.67 -7.68 11.34 -7 11 C-6.22227595 8.66682784 -5.57584432 6.38564077 -5 4 C-4.01 4 -3.02 4 -2 4 C-1.34 2.68 -0.68 1.36 0 0 Z " fill="#0E346A" transform="translate(116,295)"/>
<path d="M0 0 C0.33 0 0.66 0 1 0 C1 3.63 1 7.26 1 11 C-0.98 11.99 -0.98 11.99 -3 13 C-2.68991116 11.39536551 -2.37683713 9.79130769 -2.0625 8.1875 C-1.88847656 7.29417969 -1.71445313 6.40085937 -1.53515625 5.48046875 C-1 3 -1 3 0 0 Z " fill="#206349" transform="translate(13,273)"/>
<path d="M0 0 C2.97 0.33 5.94 0.66 9 1 C8.67 1.99 8.34 2.98 8 4 C6.1875 4.8125 6.1875 4.8125 4 5 C1.75 4.0625 1.75 4.0625 0 3 C0 2.01 0 1.02 0 0 Z " fill="#2A9262" transform="translate(48,337)"/>
<path d="M0 0 C1.32 0.33 2.64 0.66 4 1 C1.36 3.64 -1.28 6.28 -4 9 C-4.33 7.68 -4.66 6.36 -5 5 C-3.68 4.67 -2.36 4.34 -1 4 C-0.67 2.68 -0.34 1.36 0 0 Z " fill="#328D60" transform="translate(172,300)"/>
<path d="M0 0 C-3.19990508 2.74277578 -6.00499382 4.6302836 -10 6 C-9.67 4.35 -9.34 2.7 -9 1 C-5.92677456 0.08941469 -3.19902639 -0.08886184 0 0 Z " fill="#289360" transform="translate(140,330)"/>
<path d="M0 0 C0.33 0.66 0.66 1.32 1 2 C1.66 2.33 2.32 2.66 3 3 C2.01 3 1.02 3 0 3 C0.99 3.66 1.98 4.32 3 5 C0.525 6.485 0.525 6.485 -2 8 C-2.33 7.34 -2.66 6.68 -3 6 C-3.66 5.67 -4.32 5.34 -5 5 C-3.35 3.35 -1.7 1.7 0 0 Z " fill="#2C9561" transform="translate(196,256)"/>
<path d="M0 0 C0.66 0.33 1.32 0.66 2 1 C2.4140625 3.50390625 2.4140625 3.50390625 2.625 6.5625 C2.69976562 7.57441406 2.77453125 8.58632813 2.8515625 9.62890625 C2.90054688 10.41136719 2.94953125 11.19382812 3 12 C0.0234375 9.3359375 0.0234375 9.3359375 -0.1875 6.3125 C-0.125625 5.549375 -0.06375 4.78625 0 4 C-0.66 3.67 -1.32 3.34 -2 3 C-1.34 2.67 -0.68 2.34 0 2 C0 1.34 0 0.68 0 0 Z " fill="#2A9561" transform="translate(156,252)"/>
<path d="M0 0 C0.66 0.33 1.32 0.66 2 1 C-3.5 6 -3.5 6 -8 6 C-8 5.01 -8 4.02 -8 3 C-6.865625 2.690625 -5.73125 2.38125 -4.5625 2.0625 C-1.21224901 1.37075469 -1.21224901 1.37075469 0 0 Z " fill="#2E9260" transform="translate(172,278)"/>
<path d="M0 0 C0.33 0 0.66 0 1 0 C1 1.65 1 3.3 1 5 C1.66 5.33 2.32 5.66 3 6 C2.360625 6.268125 1.72125 6.53625 1.0625 6.8125 C-1.33131686 7.88667752 -1.33131686 7.88667752 -2 11 C-1.85892253 9.54119891 -1.71197585 8.08296449 -1.5625 6.625 C-1.48128906 5.81289063 -1.40007812 5.00078125 -1.31640625 4.1640625 C-1 2 -1 2 0 0 Z " fill="#319260" transform="translate(138,260)"/>
<path d="M0 0 C-4.95 1.485 -4.95 1.485 -10 3 C-10.33 2.01 -10.66 1.02 -11 0 C-3.375 -1.125 -3.375 -1.125 0 0 Z " fill="#289360" transform="translate(112,345)"/>
<path d="M0 0 C0.33 0.99 0.66 1.98 1 3 C2.32 3 3.64 3 5 3 C4.34 4.32 3.68 5.64 3 7 C2.01 7 1.02 7 0 7 C0 4.69 0 2.38 0 0 Z " fill="#28945A" transform="translate(8,298)"/>
<path d="M0 0 C0.33 0.66 0.66 1.32 1 2 C0.0625 4.625 0.0625 4.625 -1 7 C-4 7 -4 7 -6 6 C-4.02 4.02 -2.04 2.04 0 0 Z " fill="#2C7953" transform="translate(213,237)"/>
<path d="" fill="#1A3333" transform="translate(0,0)"/>
</svg>
